<?xml version="1.0" encoding="UTF-8" standalone="no"?>
<!DOCTYPE svg PUBLIC "-//W3C//DTD SVG 1.1//EN"
 "http://www.w3.org/Graphics/SVG/1.1/DTD/svg11.dtd">
<!-- Generated by graphviz version 13.0.1 (20250615.1724)
 -->
<!-- Pages: 1 -->
<svg width="1938pt" height="3040pt"
 viewBox="0.00 0.00 1938.00 3040.00" xmlns="http://www.w3.org/2000/svg" xmlns:xlink="http://www.w3.org/1999/xlink">
<g id="graph0" class="graph" transform="scale(4.16667 4.16667) rotate(0) translate(4 725.5)">
<polygon fill="white" stroke="none" points="-4,4 -4,-725.5 461.12,-725.5 461.12,4 -4,4"/>
<!-- input -->
<g id="node1" class="node">
<title>input</title>
<path fill="#88c0d0" stroke="black" d="M311.12,-721.5C311.12,-721.5 131.62,-721.5 131.62,-721.5 125.62,-721.5 119.63,-715.5 119.63,-709.5 119.63,-709.5 119.63,-657 119.63,-657 119.63,-651 125.63,-645 131.63,-645 131.63,-645 311.12,-645 311.12,-645 317.12,-645 323.12,-651 323.12,-657 323.12,-657 323.12,-709.5 323.12,-709.5 323.12,-715.5 317.12,-721.5 311.12,-721.5"/>
<text xml:space="preserve" text-anchor="middle" x="221.38" y="-707.05" font-family="Arial" font-size="11.00" fill="#2e3440">📊 Data Input</text>
<text xml:space="preserve" text-anchor="middle" x="221.38" y="-679.05" font-family="Arial" font-size="11.00" fill="#2e3440">Count Table: samples × features matrix</text>
<text xml:space="preserve" text-anchor="middle" x="221.38" y="-665.55" font-family="Arial" font-size="11.00" fill="#2e3440">Metadata: experimental conditions</text>
<text xml:space="preserve" text-anchor="middle" x="221.38" y="-652.05" font-family="Arial" font-size="11.00" fill="#2e3440">Supports: ASV/16S, gene, viral data</text>
</g>
<!-- profiling -->
<g id="node2" class="node">
<title>profiling</title>
<path fill="#d08770" stroke="black" d="M238.75,-588C238.75,-588 12,-588 12,-588 6,-588 0,-582 0,-576 0,-576 0,-483 0,-483 0,-477 6,-471 12,-471 12,-471 238.75,-471 238.75,-471 244.75,-471 250.75,-477 250.75,-483 250.75,-483 250.75,-576 250.75,-576 250.75,-582 244.75,-588 238.75,-588"/>
<text xml:space="preserve" text-anchor="middle" x="125.38" y="-573.55" font-family="Arial" font-size="11.00" fill="#2e3440">🔍 Comprehensive Data Profiling</text>
<text xml:space="preserve" text-anchor="middle" x="125.38" y="-545.55" font-family="Arial" font-size="11.00" fill="#2e3440">Statistical characterization:</text>
<text xml:space="preserve" text-anchor="middle" x="125.38" y="-532.05" font-family="Arial" font-size="11.00" fill="#2e3440">• Zero&#45;inflation: quantify sparsity (0&#45;95%)</text>
<text xml:space="preserve" text-anchor="middle" x="125.38" y="-518.55" font-family="Arial" font-size="11.00" fill="#2e3440">• Distribution analysis: mean, variance, skewness</text>
<text xml:space="preserve" text-anchor="middle" x="125.38" y="-505.05" font-family="Arial" font-size="11.00" fill="#2e3440">• Library size normalization assessment</text>
<text xml:space="preserve" text-anchor="middle" x="125.38" y="-491.55" font-family="Arial" font-size="11.00" fill="#2e3440">• Compositional bias detection</text>
<text xml:space="preserve" text-anchor="middle" x="125.38" y="-478.05" font-family="Arial" font-size="11.00" fill="#2e3440">• Data type classification (ASV/gene/viral)</text>
</g>
<!-- input&#45;&gt;profiling -->
<g id="edge1" class="edge">
<title>input&#45;&gt;profiling</title>
<path fill="none" stroke="#2e3440" d="M197.64,-644.74C188.64,-630.51 178.09,-613.83 167.88,-597.68"/>
<polygon fill="#2e3440" stroke="#2e3440" points="171.03,-596.12 162.72,-589.54 165.11,-599.86 171.03,-596.12"/>
<text xml:space="preserve" text-anchor="middle" x="219.3" y="-618.45" font-family="Arial" font-size="9.00">Raw microbiome</text>
<text xml:space="preserve" text-anchor="middle" x="219.3" y="-607.95" font-family="Arial" font-size="9.00">count matrix</text>
</g>
<!-- selection -->
<g id="node3" class="node">
<title>selection</title>
<path fill="#a3be8c" stroke="black" d="M445.12,-453C445.12,-453 187.62,-453 187.62,-453 181.62,-453 175.62,-447 175.62,-441 175.62,-441 175.62,-348 175.62,-348 175.62,-342 181.62,-336 187.62,-336 187.62,-336 445.12,-336 445.12,-336 451.12,-336 457.12,-342 457.12,-348 457.12,-348 457.12,-441 457.12,-441 457.12,-447 451.12,-453 445.12,-453"/>
<text xml:space="preserve" text-anchor="middle" x="316.38" y="-438.55" font-family="Arial" font-size="11.00" fill="#2e3440">🧮 Information&#45;Theoretic Method Selection</text>
<text xml:space="preserve" text-anchor="middle" x="316.38" y="-410.55" font-family="Arial" font-size="11.00" fill="#2e3440">Mathematical optimization framework:</text>
<text xml:space="preserve" text-anchor="middle" x="316.38" y="-397.05" font-family="Arial" font-size="11.00" fill="#2e3440">• Maximum entropy principle: Method* = argmax H(X|θ)</text>
<text xml:space="preserve" text-anchor="middle" x="316.38" y="-383.55" font-family="Arial" font-size="11.00" fill="#2e3440">• Jensen&#45;Shannon divergence: between&#45;group analysis</text>
<text xml:space="preserve" text-anchor="middle" x="316.38" y="-370.05" font-family="Arial" font-size="11.00" fill="#2e3440">• CLR transformation compatibility assessment</text>
<text xml:space="preserve" text-anchor="middle" x="316.38" y="-356.55" font-family="Arial" font-size="11.00" fill="#2e3440">• Method suitability scoring (0&#45;100%)</text>
<text xml:space="preserve" text-anchor="middle" x="316.38" y="-343.05" font-family="Arial" font-size="11.00" fill="#2e3440">• Uncertainty quantification</text>
</g>
<!-- input&#45;&gt;selection -->
<g id="edge2" class="edge">
<title>input&#45;&gt;selection</title>
<path fill="none" stroke="#2e3440" d="M248.24,-644.52C251.63,-638.82 254.8,-632.87 257.38,-627 280.32,-574.72 295.64,-511.73 304.91,-464.66"/>
<polygon fill="#2e3440" stroke="#2e3440" points="308.35,-465.33 306.8,-454.85 301.48,-464.01 308.35,-465.33"/>
<text xml:space="preserve" text-anchor="middle" x="304.56" y="-618.45" font-family="Arial" font-size="9.00">Data characteristics</text>
<text xml:space="preserve" text-anchor="middle" x="304.56" y="-607.95" font-family="Arial" font-size="9.00">&amp; constraints</text>
</g>
<!-- analysis -->
<g id="node4" class="node">
<title>analysis</title>
<path fill="#5e81ac" stroke="black" d="M228,-318C228,-318 26.75,-318 26.75,-318 20.75,-318 14.75,-312 14.75,-306 14.75,-306 14.75,-199.5 14.75,-199.5 14.75,-193.5 20.75,-187.5 26.75,-187.5 26.75,-187.5 228,-187.5 228,-187.5 234,-187.5 240,-193.5 240,-199.5 240,-199.5 240,-306 240,-306 240,-312 234,-318 228,-318"/>
<text xml:space="preserve" text-anchor="middle" x="127.38" y="-303.55" font-family="Arial" font-size="11.00" fill="white">⚡ Parallel Multi&#45;Method Analysis</text>
<text xml:space="preserve" text-anchor="middle" x="127.38" y="-275.55" font-family="Arial" font-size="11.00" fill="white">Simultaneous statistical testing:</text>
<text xml:space="preserve" text-anchor="middle" x="127.38" y="-262.05" font-family="Arial" font-size="11.00" fill="white">• Wilcoxon: rank&#45;based non&#45;parametric</text>
<text xml:space="preserve" text-anchor="middle" x="127.38" y="-248.55" font-family="Arial" font-size="11.00" fill="white">• ALDEx2: CLR + Monte Carlo (n=128)</text>
<text xml:space="preserve" text-anchor="middle" x="127.38" y="-235.05" font-family="Arial" font-size="11.00" fill="white">• DESeq2: negative binomial GLM</text>
<text xml:space="preserve" text-anchor="middle" x="127.38" y="-221.55" font-family="Arial" font-size="11.00" fill="white">• edgeR: TMM normalization + QLF</text>
<text xml:space="preserve" text-anchor="middle" x="127.38" y="-208.05" font-family="Arial" font-size="11.00" fill="white">• metagenomeSeq: zero&#45;inflated log&#45;normal</text>
<text xml:space="preserve" text-anchor="middle" x="127.38" y="-194.55" font-family="Arial" font-size="11.00" fill="white">• ANCOM&#45;BC: bias&#45;corrected compositional</text>
</g>
<!-- profiling&#45;&gt;analysis -->
<g id="edge3" class="edge">
<title>profiling&#45;&gt;analysis</title>
<path fill="none" stroke="#2e3440" d="M90.59,-470.72C88.18,-464.88 86.12,-458.92 84.62,-453 71.89,-402.58 72.28,-386.51 84.62,-336 85.19,-333.68 85.84,-331.35 86.55,-329.02"/>
<polygon fill="#2e3440" stroke="#2e3440" points="89.85,-330.2 89.83,-319.61 83.24,-327.9 89.85,-330.2"/>
<text xml:space="preserve" text-anchor="middle" x="125.5" y="-396.45" font-family="Arial" font-size="9.00">Statistical profile</text>
<text xml:space="preserve" text-anchor="middle" x="125.5" y="-385.95" font-family="Arial" font-size="9.00">&amp; recommendations</text>
</g>
<!-- consensus -->
<g id="node5" class="node">
<title>consensus</title>
<path fill="#b48ead" stroke="black" d="M314.5,-130.5C314.5,-130.5 110.25,-130.5 110.25,-130.5 104.25,-130.5 98.25,-124.5 98.25,-118.5 98.25,-118.5 98.25,-12 98.25,-12 98.25,-6 104.25,0 110.25,0 110.25,0 314.5,0 314.5,0 320.5,0 326.5,-6 326.5,-12 326.5,-12 326.5,-118.5 326.5,-118.5 326.5,-124.5 320.5,-130.5 314.5,-130.5"/>
<text xml:space="preserve" text-anchor="middle" x="212.38" y="-116.05" font-family="Arial" font-size="11.00" fill="#2e3440">🤝 Advanced Consensus Integration</text>
<text xml:space="preserve" text-anchor="middle" x="212.38" y="-88.05" font-family="Arial" font-size="11.00" fill="#2e3440">Multi&#45;method result synthesis:</text>
<text xml:space="preserve" text-anchor="middle" x="212.38" y="-74.55" font-family="Arial" font-size="11.00" fill="#2e3440">• Voting strategies: simple, weighted, ranked</text>
<text xml:space="preserve" text-anchor="middle" x="212.38" y="-61.05" font-family="Arial" font-size="11.00" fill="#2e3440">• Cohen kappa: inter&#45;method agreement</text>
<text xml:space="preserve" text-anchor="middle" x="212.38" y="-47.55" font-family="Arial" font-size="11.00" fill="#2e3440">• Effect size concordance analysis</text>
<text xml:space="preserve" text-anchor="middle" x="212.38" y="-34.05" font-family="Arial" font-size="11.00" fill="#2e3440">• P&#45;value consistency assessment</text>
<text xml:space="preserve" text-anchor="middle" x="212.38" y="-20.55" font-family="Arial" font-size="11.00" fill="#2e3440">• Confidence intervals: bootstrap (n=50&#45;100)</text>
<text xml:space="preserve" text-anchor="middle" x="212.38" y="-7.05" font-family="Arial" font-size="11.00" fill="#2e3440">• Final recommendation scoring</text>
</g>
<!-- selection&#45;&gt;consensus -->
<g id="edge4" class="edge">
<title>selection&#45;&gt;consensus</title>
<path fill="none" stroke="#2e3440" d="M303.29,-335.79C291.28,-285.64 271.96,-211.37 249.38,-148.5 248.54,-146.17 247.66,-143.8 246.75,-141.43"/>
<polygon fill="#2e3440" stroke="#2e3440" points="250.1,-140.38 243.17,-132.37 243.59,-142.96 250.1,-140.38"/>
<text xml:space="preserve" text-anchor="middle" x="337.58" y="-254.7" font-family="Arial" font-size="9.00">Optimal method</text>
<text xml:space="preserve" text-anchor="middle" x="337.58" y="-244.2" font-family="Arial" font-size="9.00">selection &amp; weights</text>
</g>
<!-- analysis&#45;&gt;consensus -->
<g id="edge5" class="edge">
<title>analysis&#45;&gt;consensus</title>
<path fill="none" stroke="#2e3440" d="M156.98,-187.13C163.76,-172.35 171.01,-156.51 177.97,-141.33"/>
<polygon fill="#2e3440" stroke="#2e3440" points="181.11,-142.88 182.1,-132.33 174.75,-139.96 181.11,-142.88"/>
<text xml:space="preserve" text-anchor="middle" x="208.8" y="-160.95" font-family="Arial" font-size="9.00">Individual method</text>
<text xml:space="preserve" text-anchor="middle" x="208.8" y="-150.45" font-family="Arial" font-size="9.00">results &amp; p&#45;values</text>
</g>
</g>
</svg>
