<?xml version="1.0" encoding="UTF-8" standalone="no"?>
<!DOCTYPE svg PUBLIC "-//W3C//DTD SVG 1.1//EN"
 "http://www.w3.org/Graphics/SVG/1.1/DTD/svg11.dtd">
<!-- Generated by graphviz version 13.0.1 (20250615.1724)
 -->
<!-- Pages: 1 -->
<svg width="1247pt" height="2465pt"
 viewBox="0.00 0.00 1247.00 2465.00" xmlns="http://www.w3.org/2000/svg" xmlns:xlink="http://www.w3.org/1999/xlink">
<g id="graph0" class="graph" transform="scale(4.16667 4.16667) rotate(0) translate(4 587.5)">
<polygon fill="white" stroke="none" points="-4,4 -4,-587.5 295.25,-587.5 295.25,4 -4,4"/>
<!-- input -->
<g id="node1" class="node">
<title>input</title>
<path fill="#88c0d0" stroke="black" d="M203.75,-583.5C203.75,-583.5 93.25,-583.5 93.25,-583.5 87.25,-583.5 81.25,-577.5 81.25,-571.5 81.25,-571.5 81.25,-532.5 81.25,-532.5 81.25,-526.5 87.25,-520.5 93.25,-520.5 93.25,-520.5 203.75,-520.5 203.75,-520.5 209.75,-520.5 215.75,-526.5 215.75,-532.5 215.75,-532.5 215.75,-571.5 215.75,-571.5 215.75,-577.5 209.75,-583.5 203.75,-583.5"/>
<text xml:space="preserve" text-anchor="middle" x="148.5" y="-569.05" font-family="Arial" font-size="11.00" fill="#2e3440">📊 Data Input</text>
<text xml:space="preserve" text-anchor="middle" x="148.5" y="-541.05" font-family="Arial" font-size="11.00" fill="#2e3440">Count Table + Metadata</text>
<text xml:space="preserve" text-anchor="middle" x="148.5" y="-527.55" font-family="Arial" font-size="11.00" fill="#2e3440">Your microbiome dataset</text>
</g>
<!-- profiling -->
<g id="node2" class="node">
<title>profiling</title>
<path fill="#d08770" stroke="black" d="M153.88,-453C153.88,-453 35.12,-453 35.12,-453 29.12,-453 23.12,-447 23.12,-441 23.12,-441 23.12,-375 23.12,-375 23.12,-369 29.12,-363 35.12,-363 35.12,-363 153.88,-363 153.88,-363 159.88,-363 165.88,-369 165.88,-375 165.88,-375 165.88,-441 165.88,-441 165.88,-447 159.88,-453 153.88,-453"/>
<text xml:space="preserve" text-anchor="middle" x="94.5" y="-438.55" font-family="Arial" font-size="11.00" fill="#2e3440">🔍 Smart Data Profiling</text>
<text xml:space="preserve" text-anchor="middle" x="94.5" y="-410.55" font-family="Arial" font-size="11.00" fill="#2e3440">Automatic characterization</text>
<text xml:space="preserve" text-anchor="middle" x="94.5" y="-397.05" font-family="Arial" font-size="11.00" fill="#2e3440">• Sparsity assessment</text>
<text xml:space="preserve" text-anchor="middle" x="94.5" y="-383.55" font-family="Arial" font-size="11.00" fill="#2e3440">• Data type detection</text>
<text xml:space="preserve" text-anchor="middle" x="94.5" y="-370.05" font-family="Arial" font-size="11.00" fill="#2e3440">• Quality metrics</text>
</g>
<!-- input&#45;&gt;profiling -->
<g id="edge1" class="edge">
<title>input&#45;&gt;profiling</title>
<path fill="none" stroke="#2e3440" d="M135.5,-520.03C133.13,-514.22 130.71,-508.19 128.5,-502.5 123.67,-490.04 118.65,-476.58 114.01,-463.85"/>
<polygon fill="#2e3440" stroke="#2e3440" points="117.42,-463 110.72,-454.8 110.84,-465.39 117.42,-463"/>
<text xml:space="preserve" text-anchor="middle" x="152.5" y="-493.95" font-family="Arial" font-size="9.00">Raw</text>
<text xml:space="preserve" text-anchor="middle" x="152.5" y="-483.45" font-family="Arial" font-size="9.00">Microbiome</text>
<text xml:space="preserve" text-anchor="middle" x="152.5" y="-472.95" font-family="Arial" font-size="9.00">Data</text>
</g>
<!-- selection -->
<g id="node3" class="node">
<title>selection</title>
<path fill="#a3be8c" stroke="black" d="M279.25,-345C279.25,-345 129.75,-345 129.75,-345 123.75,-345 117.75,-339 117.75,-333 117.75,-333 117.75,-267 117.75,-267 117.75,-261 123.75,-255 129.75,-255 129.75,-255 279.25,-255 279.25,-255 285.25,-255 291.25,-261 291.25,-267 291.25,-267 291.25,-333 291.25,-333 291.25,-339 285.25,-345 279.25,-345"/>
<text xml:space="preserve" text-anchor="middle" x="204.5" y="-330.55" font-family="Arial" font-size="11.00" fill="#2e3440">🧠 AI&#45;Powered Method Selection</text>
<text xml:space="preserve" text-anchor="middle" x="204.5" y="-302.55" font-family="Arial" font-size="11.00" fill="#2e3440">Information theory optimization</text>
<text xml:space="preserve" text-anchor="middle" x="204.5" y="-289.05" font-family="Arial" font-size="11.00" fill="#2e3440">• Maximum entropy principle</text>
<text xml:space="preserve" text-anchor="middle" x="204.5" y="-275.55" font-family="Arial" font-size="11.00" fill="#2e3440">• Divergence analysis</text>
<text xml:space="preserve" text-anchor="middle" x="204.5" y="-262.05" font-family="Arial" font-size="11.00" fill="#2e3440">• Confidence scoring</text>
</g>
<!-- input&#45;&gt;selection -->
<g id="edge2" class="edge">
<title>input&#45;&gt;selection</title>
<path fill="none" stroke="#2e3440" d="M168.71,-520.01C171.72,-514.36 174.48,-508.39 176.5,-502.5 192.82,-454.97 199.65,-398.03 202.5,-356.82"/>
<polygon fill="#2e3440" stroke="#2e3440" points="205.99,-357.07 203.12,-346.88 199,-356.64 205.99,-357.07"/>
<text xml:space="preserve" text-anchor="middle" x="215.79" y="-488.7" font-family="Arial" font-size="9.00">Dataset</text>
<text xml:space="preserve" text-anchor="middle" x="215.79" y="-478.2" font-family="Arial" font-size="9.00">Characteristics</text>
</g>
<!-- analysis -->
<g id="node4" class="node">
<title>analysis</title>
<path fill="#5e81ac" stroke="black" d="M157,-237C157,-237 12,-237 12,-237 6,-237 0,-231 0,-225 0,-225 0,-159 0,-159 0,-153 6,-147 12,-147 12,-147 157,-147 157,-147 163,-147 169,-153 169,-159 169,-159 169,-225 169,-225 169,-231 163,-237 157,-237"/>
<text xml:space="preserve" text-anchor="middle" x="84.5" y="-222.55" font-family="Arial" font-size="11.00" fill="white">⚡ Parallel Statistical Testing</text>
<text xml:space="preserve" text-anchor="middle" x="84.5" y="-194.55" font-family="Arial" font-size="11.00" fill="white">Multi&#45;method analysis</text>
<text xml:space="preserve" text-anchor="middle" x="84.5" y="-181.05" font-family="Arial" font-size="11.00" fill="white">• Wilcoxon (non&#45;parametric)</text>
<text xml:space="preserve" text-anchor="middle" x="84.5" y="-167.55" font-family="Arial" font-size="11.00" fill="white">• ALDEx2 (compositional)</text>
<text xml:space="preserve" text-anchor="middle" x="84.5" y="-154.05" font-family="Arial" font-size="11.00" fill="white">• DESeq2/edgeR (count&#45;based)</text>
</g>
<!-- profiling&#45;&gt;analysis -->
<g id="edge3" class="edge">
<title>profiling&#45;&gt;analysis</title>
<path fill="none" stroke="#2e3440" d="M84.68,-362.79C83.67,-356.84 82.82,-350.79 82.25,-345 79.14,-313.26 79.47,-277.61 80.68,-248.82"/>
<polygon fill="#2e3440" stroke="#2e3440" points="84.18,-249.01 81.16,-238.85 77.19,-248.67 84.18,-249.01"/>
<text xml:space="preserve" text-anchor="middle" x="95.38" y="-301.95" font-family="Arial" font-size="9.00">Data</text>
<text xml:space="preserve" text-anchor="middle" x="95.38" y="-291.45" font-family="Arial" font-size="9.00">Profile</text>
</g>
<!-- consensus -->
<g id="node5" class="node">
<title>consensus</title>
<path fill="#b48ead" stroke="black" d="M215.38,-90C215.38,-90 75.62,-90 75.62,-90 69.62,-90 63.62,-84 63.62,-78 63.62,-78 63.62,-12 63.62,-12 63.62,-6 69.62,0 75.62,0 75.62,0 215.38,0 215.38,0 221.38,0 227.38,-6 227.38,-12 227.38,-12 227.38,-78 227.38,-78 227.38,-84 221.38,-90 215.38,-90"/>
<text xml:space="preserve" text-anchor="middle" x="145.5" y="-75.55" font-family="Arial" font-size="11.00" fill="#2e3440">🤝 Intelligent Result Integration</text>
<text xml:space="preserve" text-anchor="middle" x="145.5" y="-47.55" font-family="Arial" font-size="11.00" fill="#2e3440">Advanced consensus</text>
<text xml:space="preserve" text-anchor="middle" x="145.5" y="-34.05" font-family="Arial" font-size="11.00" fill="#2e3440">• Voting strategies</text>
<text xml:space="preserve" text-anchor="middle" x="145.5" y="-20.55" font-family="Arial" font-size="11.00" fill="#2e3440">• Agreement metrics</text>
<text xml:space="preserve" text-anchor="middle" x="145.5" y="-7.05" font-family="Arial" font-size="11.00" fill="#2e3440">• Confidence scoring</text>
</g>
<!-- selection&#45;&gt;consensus -->
<g id="edge4" class="edge">
<title>selection&#45;&gt;consensus</title>
<path fill="none" stroke="#2e3440" d="M198.68,-254.75C194.24,-224.23 187.38,-182.86 178.5,-147 174.76,-131.87 169.89,-115.73 165.05,-100.88"/>
<polygon fill="#2e3440" stroke="#2e3440" points="168.5,-100.16 162.02,-91.78 161.85,-102.37 168.5,-100.16"/>
<text xml:space="preserve" text-anchor="middle" x="232.02" y="-193.95" font-family="Arial" font-size="9.00">Method</text>
<text xml:space="preserve" text-anchor="middle" x="232.02" y="-183.45" font-family="Arial" font-size="9.00">Recommendation</text>
</g>
<!-- analysis&#45;&gt;consensus -->
<g id="edge5" class="edge">
<title>analysis&#45;&gt;consensus</title>
<path fill="none" stroke="#2e3440" d="M103.13,-146.71C109.25,-132.16 116.13,-115.81 122.53,-100.59"/>
<polygon fill="#2e3440" stroke="#2e3440" points="125.64,-102.24 126.29,-91.67 119.18,-99.53 125.64,-102.24"/>
<text xml:space="preserve" text-anchor="middle" x="138.15" y="-120.45" font-family="Arial" font-size="9.00">Statistical</text>
<text xml:space="preserve" text-anchor="middle" x="138.15" y="-109.95" font-family="Arial" font-size="9.00">Results</text>
</g>
</g>
</svg>
